<?xml version="1.0" encoding="UTF-8"?>
<svg id="Camada_1" xmlns="http://www.w3.org/2000/svg" viewBox="0 0 1366 768">
  <defs>
    <style>
      .cls-1 {
        fill-rule: evenodd;
      }

      .cls-1, .cls-2 {
        fill: #575756;
      }

      .cls-3 {
        fill: #744897;
      }

      .cls-4 {
        fill: #009ca6;
      }

      .cls-5 {
        fill: none;
        stroke: #575756;
        stroke-miterlimit: 10;
        stroke-width: 2px;
      }
    </style>
  </defs>
  <g>
    <g>
      <path class="cls-3" d="M745.37,136.04v182.91h-50.85v-182.91h50.85Z"/>
      <path class="cls-4" d="M803.23,280.03h56.82v38.92h-107.67v-182.91h50.85v144Z"/>
      <path class="cls-3" d="M1003.52,165.35c-5.19-9.17-12.93-16.35-23.22-21.53-10.29-5.19-22.79-7.78-37.49-7.78h-76.02v182.91h50.85v-61.75h25.17c14.87,0,27.46-2.72,37.75-8.17,10.29-5.45,17.99-12.71,23.09-21.79,5.1-9.08,7.65-19.15,7.65-30.23,0-11.93-2.59-22.48-7.78-31.65ZM939.05,225.42c-11.08,0-20.07-8.99-20.07-20.07s20.07-37.54,20.07-37.54c0,0,20.07,26.45,20.07,37.54s-8.99,20.07-20.07,20.07Z"/>
    </g>
    <g>
      <path class="cls-2" d="M706.07,362.51v66.48h-4.26v-66.48h4.26Z"/>
      <path class="cls-2" d="M769.23,428.99h-4.26l-39.01-59.47v59.47h-4.26v-66.38h4.26l39.01,59.28v-59.28h4.26v66.38Z"/>
      <path class="cls-2" d="M792.81,427.38c-3.22-1.51-5.73-3.56-7.53-6.15s-2.82-5.46-3.08-8.62h4.45c.51,3.47,2.13,6.57,4.88,9.28,2.74,2.71,6.93,4.07,12.55,4.07,3.28,0,6.14-.6,8.57-1.8,2.43-1.2,4.31-2.84,5.63-4.92,1.33-2.08,1.99-4.39,1.99-6.91,0-3.22-.77-5.78-2.32-7.67-1.55-1.89-3.47-3.31-5.78-4.26-2.31-.95-5.42-1.96-9.33-3.03-4.29-1.14-7.75-2.27-10.37-3.41-2.62-1.14-4.83-2.89-6.63-5.26-1.8-2.37-2.7-5.6-2.7-9.71,0-3.16.84-6.04,2.51-8.66,1.67-2.62,4.05-4.69,7.15-6.2,3.09-1.52,6.66-2.27,10.7-2.27,5.87,0,10.61,1.45,14.21,4.36,3.6,2.9,5.74,6.47,6.44,10.7h-4.55c-.38-1.7-1.22-3.44-2.51-5.21-1.3-1.77-3.13-3.23-5.49-4.4-2.37-1.17-5.19-1.75-8.47-1.75-4.42,0-8.14,1.22-11.17,3.65-3.03,2.43-4.55,5.67-4.55,9.71,0,3.22.79,5.79,2.37,7.72,1.58,1.93,3.52,3.38,5.82,4.36,2.3.98,5.41,1.97,9.33,2.98,4.35,1.2,7.81,2.35,10.37,3.46,2.56,1.1,4.73,2.84,6.53,5.21s2.7,5.57,2.7,9.61c0,2.97-.79,5.78-2.37,8.43-1.58,2.65-3.9,4.81-6.96,6.49-3.06,1.67-6.77,2.51-11.13,2.51s-8.05-.76-11.27-2.27Z"/>
      <path class="cls-2" d="M874.05,362.51v3.6h-18.94v62.88h-4.26v-62.88h-18.94v-3.6h42.14Z"/>
      <path class="cls-2" d="M888.45,362.51v66.48h-4.26v-66.48h4.26Z"/>
      <path class="cls-2" d="M940.81,362.51v3.6h-18.94v62.88h-4.26v-62.88h-18.94v-3.6h42.14Z"/>
      <path class="cls-2" d="M954.83,362.51v41.57c0,7.51,1.7,13.02,5.11,16.52,3.41,3.5,8.05,5.26,13.92,5.26s10.38-1.74,13.73-5.21c3.35-3.47,5.02-9,5.02-16.57v-41.57h4.26v41.48c0,8.65-2.08,15.09-6.25,19.32-4.17,4.23-9.75,6.35-16.76,6.35s-12.64-2.13-16.9-6.39-6.39-10.69-6.39-19.27v-41.48h4.26Z"/>
      <path class="cls-2" d="M1048.77,362.51v3.6h-18.94v62.88h-4.26v-62.88h-18.94v-3.6h42.14Z"/>
      <path class="cls-2" d="M1071.97,425.44c-4.92-2.87-8.78-6.9-11.55-12.07-2.78-5.18-4.17-11.02-4.17-17.52s1.39-12.42,4.17-17.57c2.78-5.14,6.63-9.15,11.55-12.03,4.92-2.87,10.45-4.31,16.57-4.31s11.65,1.44,16.57,4.31c4.92,2.87,8.78,6.88,11.55,12.03,2.78,5.15,4.17,11,4.17,17.57s-1.39,12.34-4.17,17.52c-2.78,5.18-6.63,9.2-11.55,12.07-4.92,2.87-10.45,4.31-16.57,4.31s-11.65-1.44-16.57-4.31ZM1102.74,422.27c4.23-2.46,7.56-5.97,9.99-10.51,2.43-4.55,3.65-9.85,3.65-15.91s-1.22-11.46-3.65-16c-2.43-4.54-5.76-8.05-9.99-10.51-4.23-2.46-8.96-3.69-14.21-3.69s-9.98,1.23-14.2,3.69c-4.23,2.46-7.58,5.97-10.04,10.51-2.46,4.55-3.69,9.88-3.69,16s1.23,11.36,3.69,15.91c2.46,4.55,5.81,8.05,10.04,10.51,4.23,2.46,8.96,3.69,14.2,3.69s9.97-1.23,14.21-3.69Z"/>
      <path class="cls-2" d="M746.46,459.73c6.09,5.87,9.14,14.05,9.14,24.53s-3.05,18.62-9.14,24.43-14.76,8.71-25.99,8.71h-18.66v-66.48h18.66c11.24,0,19.9,2.94,25.99,8.81ZM743.38,505.99c5.24-5.21,7.86-12.45,7.86-21.73s-2.62-16.63-7.86-21.88c-5.24-5.24-12.88-7.86-22.92-7.86h-14.39v59.28h14.39c10.04,0,17.68-2.6,22.92-7.81Z"/>
      <path class="cls-2" d="M772.73,454.52v27.75h26.52v3.6h-26.52v27.93h29.36v3.6h-33.62v-66.48h33.62v3.6h-29.36Z"/>
      <path class="cls-2" d="M845.93,513.8h24.72v3.6h-28.98v-66.48h4.26v62.88Z"/>
      <path class="cls-2" d="M884.57,450.93v66.48h-4.26v-66.48h4.26Z"/>
      <path class="cls-2" d="M962.22,452.35v65.06h-4.26v-56.16l-25,56.16h-3.41l-25.09-56.16v56.16h-4.26v-65.06h4.55l26.52,59.47,26.52-59.47h4.45Z"/>
      <path class="cls-2" d="M1012.59,483.36c-3.66,3.25-9.09,4.88-16.29,4.88h-14.21v29.17h-4.26v-66.48h18.47c7.32,0,12.78,1.69,16.38,5.07,3.6,3.38,5.4,7.94,5.4,13.68s-1.83,10.43-5.49,13.68ZM1013.83,469.68c0-4.86-1.39-8.57-4.17-11.13-2.78-2.56-7.23-3.83-13.35-3.83h-14.21v29.73h14.21c11.68,0,17.52-4.92,17.52-14.77Z"/>
      <path class="cls-2" d="M1033.8,454.52v27.75h26.52v3.6h-26.52v27.93h29.36v3.6h-33.62v-66.48h33.62v3.6h-29.36Z"/>
      <path class="cls-2" d="M1076.89,513.62h35.61v3.79h-40.53v-3.6l34.94-59h-34v-3.88h38.92v3.69l-34.94,59Z"/>
      <path class="cls-2" d="M1161.64,500.36h-31.53l-6.35,17.05h-4.64l24.43-64.96h4.74l24.34,64.96h-4.64l-6.35-17.05ZM1160.32,496.76l-14.39-38.73-14.49,38.73h28.88Z"/>
      <path class="cls-2" d="M736.56,571.77c-3.66,3.25-9.09,4.88-16.29,4.88h-14.21v29.17h-4.26v-66.48h18.47c7.32,0,12.78,1.69,16.38,5.07s5.4,7.94,5.4,13.68-1.83,10.43-5.49,13.68ZM737.79,558.09c0-4.86-1.39-8.57-4.17-11.13-2.78-2.56-7.23-3.83-13.35-3.83h-14.21v29.73h14.21c11.68,0,17.52-4.92,17.52-14.77Z"/>
      <path class="cls-2" d="M789.4,605.82l-17.05-28.31h-14.58v28.31h-4.26v-66.48h18.28c7.39,0,12.93,1.74,16.62,5.21,3.69,3.47,5.54,8.08,5.54,13.83,0,5.11-1.44,9.33-4.31,12.64s-7.05,5.35-12.55,6.11l17.42,28.69h-5.11ZM757.77,573.9h14.21c5.87,0,10.26-1.42,13.16-4.26,2.9-2.84,4.36-6.6,4.36-11.27,0-10.16-5.9-15.25-17.71-15.25h-14.02v30.77Z"/>
      <path class="cls-2" d="M819.7,602.26c-4.92-2.87-8.78-6.9-11.55-12.07-2.78-5.18-4.17-11.02-4.17-17.52s1.39-12.42,4.17-17.57c2.78-5.15,6.63-9.15,11.55-12.03,4.92-2.87,10.45-4.31,16.57-4.31s11.65,1.44,16.57,4.31c4.92,2.87,8.78,6.88,11.55,12.03,2.78,5.15,4.17,11,4.17,17.57s-1.39,12.34-4.17,17.52c-2.78,5.18-6.63,9.2-11.55,12.07-4.92,2.87-10.45,4.31-16.57,4.31s-11.65-1.44-16.57-4.31ZM850.48,599.09c4.23-2.46,7.56-5.97,9.99-10.51s3.65-9.85,3.65-15.91-1.22-11.46-3.65-16-5.76-8.05-9.99-10.51c-4.23-2.46-8.96-3.69-14.21-3.69s-9.98,1.23-14.2,3.69c-4.23,2.46-7.58,5.97-10.04,10.51s-3.69,9.88-3.69,16,1.23,11.36,3.69,15.91,5.81,8.05,10.04,10.51c4.23,2.46,8.96,3.69,14.2,3.69s9.97-1.23,14.21-3.69Z"/>
      <path class="cls-2" d="M915.72,539.34v3.6h-30.02v27.75h26.23v3.6h-26.23v31.53h-4.26v-66.48h34.28Z"/>
      <path class="cls-2" d="M931.25,539.34v66.48h-4.26v-66.48h4.26Z"/>
      <path class="cls-2" d="M954.83,604.21c-3.22-1.51-5.73-3.56-7.53-6.15s-2.82-5.46-3.08-8.62h4.45c.51,3.47,2.13,6.57,4.88,9.28,2.74,2.71,6.93,4.07,12.55,4.07,3.28,0,6.14-.6,8.57-1.8,2.43-1.2,4.31-2.84,5.63-4.92,1.33-2.08,1.99-4.39,1.99-6.91,0-3.22-.77-5.78-2.32-7.67-1.55-1.89-3.47-3.32-5.78-4.26-2.31-.95-5.42-1.96-9.33-3.03-4.29-1.14-7.75-2.27-10.37-3.41s-4.83-2.89-6.63-5.25c-1.8-2.37-2.7-5.6-2.7-9.71,0-3.16.84-6.04,2.51-8.66,1.67-2.62,4.05-4.69,7.15-6.2,3.09-1.51,6.66-2.27,10.7-2.27,5.87,0,10.61,1.45,14.21,4.36s5.74,6.47,6.44,10.7h-4.55c-.38-1.7-1.22-3.44-2.51-5.21-1.3-1.77-3.13-3.24-5.49-4.4-2.37-1.17-5.19-1.75-8.47-1.75-4.42,0-8.14,1.22-11.17,3.65-3.03,2.43-4.55,5.67-4.55,9.7,0,3.22.79,5.79,2.37,7.72,1.58,1.93,3.52,3.38,5.82,4.36s5.41,1.97,9.33,2.98c4.35,1.2,7.81,2.35,10.37,3.46,2.56,1.1,4.73,2.84,6.53,5.21,1.8,2.37,2.7,5.57,2.7,9.61,0,2.97-.79,5.78-2.37,8.43-1.58,2.65-3.9,4.81-6.96,6.49-3.06,1.67-6.77,2.51-11.13,2.51s-8.05-.76-11.27-2.27Z"/>
      <path class="cls-2" d="M1007.29,604.21c-3.22-1.51-5.73-3.56-7.53-6.15s-2.82-5.46-3.08-8.62h4.45c.51,3.47,2.13,6.57,4.88,9.28,2.74,2.71,6.93,4.07,12.55,4.07,3.28,0,6.14-.6,8.57-1.8,2.43-1.2,4.31-2.84,5.63-4.92,1.33-2.08,1.99-4.39,1.99-6.91,0-3.22-.77-5.78-2.32-7.67-1.55-1.89-3.47-3.32-5.78-4.26-2.31-.95-5.42-1.96-9.33-3.03-4.29-1.14-7.75-2.27-10.37-3.41-2.62-1.14-4.83-2.89-6.63-5.25-1.8-2.37-2.7-5.6-2.7-9.71,0-3.16.84-6.04,2.51-8.66,1.67-2.62,4.05-4.69,7.15-6.2,3.09-1.51,6.66-2.27,10.7-2.27,5.87,0,10.61,1.45,14.21,4.36,3.6,2.9,5.74,6.47,6.44,10.7h-4.55c-.38-1.7-1.22-3.44-2.51-5.21-1.3-1.77-3.13-3.24-5.49-4.4-2.37-1.17-5.19-1.75-8.47-1.75-4.42,0-8.14,1.22-11.17,3.65-3.03,2.43-4.55,5.67-4.55,9.7,0,3.22.79,5.79,2.37,7.72,1.58,1.93,3.52,3.38,5.82,4.36s5.41,1.97,9.33,2.98c4.35,1.2,7.81,2.35,10.37,3.46,2.56,1.1,4.73,2.84,6.53,5.21,1.8,2.37,2.7,5.57,2.7,9.61,0,2.97-.79,5.78-2.37,8.43-1.58,2.65-3.9,4.81-6.96,6.49-3.06,1.67-6.77,2.51-11.13,2.51s-8.05-.76-11.27-2.27Z"/>
      <path class="cls-2" d="M1056.05,539.34v66.48h-4.26v-66.48h4.26Z"/>
      <path class="cls-2" d="M1084.75,602.26c-4.92-2.87-8.78-6.9-11.55-12.07-2.78-5.18-4.17-11.02-4.17-17.52s1.39-12.42,4.17-17.57c2.78-5.15,6.63-9.15,11.55-12.03s10.45-4.31,16.57-4.31,11.65,1.44,16.57,4.31,8.78,6.88,11.55,12.03c2.78,5.15,4.17,11,4.17,17.57s-1.39,12.34-4.17,17.52c-2.78,5.18-6.63,9.2-11.55,12.07-4.92,2.87-10.45,4.31-16.57,4.31s-11.65-1.44-16.57-4.31ZM1115.52,599.09c4.23-2.46,7.56-5.97,9.99-10.51,2.43-4.55,3.65-9.85,3.65-15.91s-1.22-11.46-3.65-16c-2.43-4.55-5.76-8.05-9.99-10.51-4.23-2.46-8.96-3.69-14.21-3.69s-9.98,1.23-14.2,3.69c-4.23,2.46-7.58,5.97-10.04,10.51-2.46,4.55-3.69,9.88-3.69,16s1.23,11.36,3.69,15.91c2.46,4.55,5.81,8.05,10.04,10.51,4.23,2.46,8.96,3.69,14.2,3.69s9.97-1.23,14.21-3.69Z"/>
      <path class="cls-2" d="M1194.02,605.82h-4.26l-39.01-59.47v59.47h-4.26v-66.38h4.26l39.01,59.28v-59.28h4.26v66.38Z"/>
      <path class="cls-2" d="M1247.34,588.77h-31.53l-6.35,17.05h-4.64l24.43-64.96h4.74l24.34,64.96h-4.64l-6.35-17.05ZM1246.01,585.17l-14.39-38.73-14.49,38.73h28.88Z"/>
      <path class="cls-2" d="M1273.28,602.22h24.72v3.6h-28.98v-66.48h4.26v62.88Z"/>
    </g>
    <line class="cls-5" x1="630.25" y1="122.01" x2="630.25" y2="634.25"/>
  </g>
  <g>
    <g>
      <path class="cls-3" d="M143.81,516.06c-.86-2.72-1.69-5.6-2.47-8.58l-.19-.7c-.69-2.68-1.34-5.44-1.97-8.46l-.26-1.23c-.54-2.66-1.04-5.47-1.49-8.33l-.22-1.43c-.42-2.81-.78-5.64-1.06-8.39l-.13-1.37c-.3-3.06-.51-5.9-.65-8.66l-.04-.97c-.15-3.28-.23-6.29-.23-9.2,0-29.16,6.35-57.04,18.88-82.87,17.15-35.46,45.43-64.77,79.65-82.53l12.92-6.7-.4.83c20.47-8.67,42.14-13.21,64.51-13.52,1.57-.08,3.44-.08,5.2,0,22.02.31,43.37,4.73,63.56,13.15l-.64-1.05c-.86-1.44-1.72-2.88-2.62-4.3-.27-.43-.56-.85-.84-1.28l-.53-.79c-.86-1.31-1.6-2.44-2.36-3.55-.35-.51-.72-1.02-1.08-1.53l-.51-.71c-.8-1.13-1.56-2.18-2.34-3.22-.47-.63-.95-1.25-1.43-1.87l-.33-.42c-.78-1.02-1.57-2.03-2.37-3.02-.52-.65-1.06-1.29-1.6-1.93l-.29-.34c-.81-.96-1.61-1.92-2.44-2.86-.66-.75-1.32-1.49-1.99-2.23-.83-.92-1.67-1.83-2.52-2.73-.69-.73-1.39-1.45-2.09-2.17-.86-.88-1.73-1.75-2.61-2.61-.72-.7-1.44-1.4-2.17-2.09-.89-.84-1.79-1.67-2.7-2.5-.74-.67-1.48-1.34-2.23-2-.93-.81-1.88-1.61-2.82-2.41l-.25-.21c-.67-.57-1.35-1.13-2.03-1.68-.97-.79-1.96-1.55-2.94-2.32l-.43-.33c-.62-.48-1.24-.97-1.88-1.44-1-.74-2.01-1.46-3.02-2.18l-.82-.59c-.52-.37-1.03-.74-1.56-1.1-1.07-.74-2.16-1.44-3.25-2.15l-.89-.58c-.47-.31-.93-.62-1.41-.92-1.26-.79-2.53-1.54-3.8-2.3l-.77-.46c-.36-.22-.73-.44-1.1-.66-1.92-1.1-3.85-2.17-5.81-3.19-23.52-12.31-48.92-18.56-75.49-18.56s-51.68,6.17-75.1,18.35c-57.55,29.86-93.31,89.93-93.31,156.79,0,61.33,30.78,117.99,80.81,149.61-.25-.63-.49-1.25-.72-1.87l-.36-.99c-1.11-2.99-2.06-5.75-2.91-8.42l-.09-.28Z"/>
      <path class="cls-4" d="M437.24,556.56c-2.57.72-5.23,1.38-8.13,2.04l-1.23.28c-2.56.56-5.17,1.06-7.98,1.54l-1.42.24c-2.73.44-5.44.8-8.05,1.1l-1.34.14c-2.96.31-5.68.53-8.33.67l-.95.04c-3.21.16-6.11.24-8.87.24-28.16,0-55.07-6.62-79.98-19.66-34.16-17.82-62.38-47.2-79.46-82.73l-6.31-13.13.82.43c-8.43-21.35-12.84-43.9-13.14-67.11-.04-.77-.04-1.7-.04-2.63s0-1.85.04-2.78c.29-22.84,4.56-45.03,12.7-66.02l-.05.04c-1.61,1.03-3.21,2.07-4.78,3.15-.37.25-.74.52-1.1.78l-.76.54c-1.19.84-2.37,1.68-3.54,2.54-.46.34-.91.69-1.36,1.04l-.95.74c-.99.76-1.97,1.52-2.94,2.3-.51.42-1.02.84-1.53,1.27l-.63.53c-1.03.87-1.99,1.67-2.94,2.5-.59.51-1.17,1.04-1.74,1.56l-.41.37c-.93.84-1.86,1.69-2.78,2.56-.72.68-1.42,1.36-2.12,2.05-.89.87-1.78,1.75-2.65,2.64-.69.71-1.38,1.42-2.06,2.14-.85.9-1.7,1.81-2.53,2.73-.67.74-1.33,1.48-1.99,2.23-.82.94-1.63,1.88-2.43,2.84-.64.76-1.28,1.53-1.91,2.3-.79.97-1.56,1.95-2.32,2.94-.64.83-1.23,1.59-1.81,2.36-.76,1.01-1.5,2.04-2.24,3.07l-.39.55c-.44.61-.88,1.22-1.31,1.84-.72,1.04-1.42,2.1-2.12,3.16l-.52.79c-.37.55-.73,1.11-1.09,1.67-.67,1.06-1.32,2.13-1.97,3.2l-.66,1.09c-.3.49-.6.97-.88,1.46-.74,1.26-1.44,2.55-2.15,3.83l-.52.93c-.21.38-.42.75-.63,1.13-1.06,1.99-2.09,4-3.07,6.03-11.89,24.5-17.91,50.95-17.91,78.64s5.96,53.84,17.71,78.23c28.73,59.77,86.47,96.9,150.7,96.9,59.07,0,113.62-32.11,144.01-84.28-.55.23-1.11.46-1.65.68l-1.11.44c-2.82,1.12-5.42,2.09-7.96,2.96l-.29.1c-2.87.96-5.58,1.81-8.29,2.57l-.67.2Z"/>
      <path class="cls-3" d="M482.61,239.98c.86,2.71,1.68,5.58,2.46,8.53l.2.74c.68,2.62,1.32,5.39,1.96,8.43l.26,1.24c.53,2.64,1.04,5.44,1.49,8.32l.22,1.43c.42,2.82.78,5.65,1.06,8.39l.13,1.36c.29,3.06.51,5.89.65,8.65l.04.99c.15,3.28.23,6.29.23,9.19,0,29.17-6.35,57.05-18.88,82.87-17.15,35.46-45.43,64.77-79.65,82.53l-12.88,6.68.39-.82c-20.48,8.68-42.16,13.23-64.54,13.54-1.59.08-3.48.07-5.24,0-21.97-.3-43.32-4.72-63.53-13.15.12.19.23.38.35.57l.46.76c.8,1.34,1.6,2.68,2.44,4,.3.48.62.95.93,1.42l.85,1.29c.64.97,1.28,1.95,1.94,2.9.38.56.77,1.1,1.17,1.64l.67.93c.69.97,1.38,1.94,2.09,2.89.45.6.91,1.2,1.38,1.79l.45.58c.76.98,1.52,1.96,2.3,2.92.57.71,1.15,1.4,1.73,2.09l.22.26c.78.94,1.57,1.87,2.37,2.79.67.77,1.36,1.53,2.06,2.3.81.89,1.62,1.78,2.45,2.66.71.75,1.42,1.49,2.14,2.22.84.86,1.69,1.72,2.55,2.56.73.72,1.47,1.43,2.22,2.14.87.83,1.76,1.64,2.65,2.45.76.68,1.51,1.37,2.28,2.04.91.8,1.83,1.58,2.76,2.35l.19.16c.71.6,1.42,1.2,2.15,1.78.95.77,1.91,1.52,2.88,2.26l.51.4c.62.48,1.23.95,1.86,1.42.9.67,1.82,1.33,2.74,1.98l1,.72c.55.39,1.1.78,1.65,1.17,1.03.7,2.08,1.39,3.13,2.07l.87.57c.51.34,1.03.68,1.55,1,1.08.68,2.17,1.33,3.26,1.98l1.25.75c.39.24.77.47,1.17.7,1.79,1.03,3.61,2.02,5.43,2.98l.24.13c14.77,7.74,30.28,13.1,46.25,16,9.57,1.74,19.45,2.62,29.37,2.62,26.42,0,51.68-6.17,75.1-18.35,57.55-29.85,93.3-89.93,93.3-156.79,0-61.33-30.79-117.99-80.81-149.62.24.63.48,1.24.71,1.86l.37,1.02c1.1,2.98,2.05,5.72,2.9,8.39l.1.32Z"/>
      <path class="cls-4" d="M198.51,197.14c2.58-.56,5.28-1.08,8.03-1.55l1.38-.23c2.7-.43,5.42-.8,8.08-1.1l1.32-.14c2.95-.31,5.68-.53,8.33-.67l.95-.04c3.19-.16,6.08-.24,8.86-.24,28.15,0,55.06,6.62,79.98,19.66,34.16,17.82,62.38,47.2,79.46,82.73l6.29,13.09-.82-.42c8.43,21.36,12.86,43.92,13.15,67.15.04.77.04,1.7.04,2.63s0,1.86-.04,2.78c-.29,22.83-4.56,45.02-12.71,66.02,1.63-1.04,3.25-2.1,4.85-3.2.35-.24.69-.48,1.03-.73l.73-.52c1.22-.86,2.44-1.72,3.64-2.62.44-.33.88-.67,1.32-1.01l.93-.72c1.01-.77,2.01-1.55,3-2.35.52-.42,1.04-.86,1.55-1.29l.58-.48c.99-.83,1.99-1.66,2.97-2.52.57-.5,1.13-1.01,1.69-1.51l.44-.4c.94-.85,1.88-1.7,2.8-2.58.62-.59,1.24-1.19,1.85-1.79l.25-.25c.89-.87,1.78-1.75,2.66-2.65.69-.71,1.38-1.42,2.05-2.14.86-.9,1.7-1.81,2.54-2.74.67-.74,1.33-1.48,1.99-2.23.82-.93,1.62-1.88,2.43-2.83.64-.76,1.28-1.53,1.91-2.3.78-.97,1.56-1.95,2.32-2.94.61-.79,1.22-1.57,1.82-2.37.75-1.01,1.49-2.03,2.22-3.06l.35-.49c.45-.63.91-1.27,1.36-1.91.73-1.06,1.44-2.14,2.15-3.21l.46-.69c.38-.57.76-1.14,1.12-1.72.7-1.09,1.37-2.21,2.04-3.32l.56-.92c.31-.51.62-1.01.92-1.53.74-1.27,1.45-2.56,2.16-3.85l.51-.91c.21-.38.42-.76.63-1.14,1.06-1.98,2.08-3.99,3.06-6.03,11.89-24.49,17.91-50.95,17.91-78.64s-5.96-53.84-17.71-78.24c-28.73-59.77-86.47-96.9-150.7-96.9-59.06,0-113.61,32.11-144.01,84.28.57-.24,1.13-.47,1.68-.69l1.01-.4c2.88-1.14,5.51-2.12,8.06-2.99l.24-.08c2.81-.95,5.57-1.81,8.37-2.6l.62-.18c2.55-.71,5.23-1.38,8.17-2.05l1.17-.27Z"/>
    </g>
    <path class="cls-1" d="M313.21,423.71c17.59,0,31.84-14.26,31.84-31.84s-31.84-59.56-31.84-59.56c0,0-31.84,41.97-31.84,59.56,0,17.59,14.26,31.84,31.84,31.84"/>
  </g>
</svg>